<svg xmlns="http://www.w3.org/2000/svg" xmlns:xlink="http://www.w3.org/1999/xlink" width="1587" zoomAndPan="magnify" viewBox="0 0 1190.25 1683.749949" height="2245" preserveAspectRatio="xMidYMid meet" version="1.0"><defs><g/><clipPath id="3c88d4d57d"><path d="M 0 0.40625 L 1189.5 0.40625 L 1189.5 1683.09375 L 0 1683.09375 Z M 0 0.40625 " clip-rule="nonzero"/></clipPath><clipPath id="a12cb2d999"><path d="M 0 0.40625 L 1189.5 0.40625 L 1189.5 409 L 0 409 Z M 0 0.40625 " clip-rule="nonzero"/></clipPath><clipPath id="82cdc736bb"><path d="M 0 0.40625 L 1189.5 0.40625 L 1189.5 408 L 0 408 Z M 0 0.40625 " clip-rule="nonzero"/></clipPath><clipPath id="3aa0a19902"><rect x="0" width="1190" y="0" height="409"/></clipPath><clipPath id="14a180f064"><path d="M 0 1517 L 1189.5 1517 L 1189.5 1683.09375 L 0 1683.09375 Z M 0 1517 " clip-rule="nonzero"/></clipPath><clipPath id="2107c0b1b5"><path d="M 0 1 L 1189.492188 1 L 1189.492188 166.09375 L 0 166.09375 Z M 0 1 " clip-rule="nonzero"/></clipPath><clipPath id="5e9cbb6dc7"><rect x="0" width="1190" y="0" height="167"/></clipPath><clipPath id="646f43b07a"><rect x="0" width="754" y="0" height="207"/></clipPath><clipPath id="2d7822efd4"><path d="M 118 0.0625 L 214 0.0625 L 214 151 L 118 151 Z M 118 0.0625 " clip-rule="nonzero"/></clipPath><clipPath id="f13e5bffda"><rect x="0" width="218" y="0" height="176"/></clipPath><clipPath id="35d212b8c2"><rect x="0" width="1190" y="0" height="1684"/></clipPath></defs><g clip-path="url(#3c88d4d57d)"><g transform="matrix(1, 0, 0, 1, 0, 0.000000000000081102)"><g clip-path="url(#35d212b8c2)"><g clip-path="url(#a12cb2d999)"><g transform="matrix(1, 0, 0, 1, 0, 0.000000000000081102)"><g clip-path="url(#3aa0a19902)"><g clip-path="url(#82cdc736bb)"><path fill="#d52c1a" d="M -97.804688 322.085938 L -52.582031 313.339844 C -7.355469 304.445312 83.097656 286.957031 173.550781 298.414062 C 264.003906 310.023438 354.453125 350.726562 444.90625 376.355469 C 535.359375 401.984375 625.8125 412.535156 716.261719 405 C 806.714844 397.460938 897.167969 371.832031 987.621094 337.160156 C 1078.070312 302.484375 1168.523438 258.769531 1213.75 236.910156 L 1258.976562 215.050781 L 1258.976562 -53.292969 L 1213.75 -53.292969 C 1168.523438 -53.292969 1078.070312 -53.292969 987.621094 -53.292969 C 897.167969 -53.292969 806.714844 -53.292969 716.261719 -53.292969 C 625.8125 -53.292969 535.359375 -53.292969 444.90625 -53.292969 C 354.453125 -53.292969 264.003906 -53.292969 173.550781 -53.292969 C 83.097656 -53.292969 -7.355469 -53.292969 -52.582031 -53.292969 L -97.804688 -53.292969 Z M -97.804688 322.085938 " fill-opacity="1" fill-rule="nonzero"/></g></g></g></g><g clip-path="url(#14a180f064)"><g transform="matrix(1, 0, 0, 1, 0, 1517)"><g clip-path="url(#5e9cbb6dc7)"><g clip-path="url(#2107c0b1b5)"><path fill="#d52c1a" d="M 1189.484375 98.792969 L 1137.960938 108.753906 C 1086.4375 118.886719 983.394531 138.808594 880.347656 125.757812 C 777.300781 112.53125 674.257812 66.164062 571.210938 36.964844 C 468.167969 7.769531 365.121094 -4.25 262.074219 4.335938 C 159.03125 12.921875 55.984375 42.117188 -47.0625 81.621094 C -150.105469 121.121094 -253.152344 170.925781 -304.675781 195.828125 L -356.195312 220.730469 L -356.195312 526.433594 L -304.675781 526.433594 C -253.152344 526.433594 -150.105469 526.433594 -47.0625 526.433594 C 55.984375 526.433594 159.03125 526.433594 262.074219 526.433594 C 365.121094 526.433594 468.167969 526.433594 571.210938 526.433594 C 674.257812 526.433594 777.300781 526.433594 880.347656 526.433594 C 983.394531 526.433594 1086.4375 526.433594 1137.960938 526.433594 L 1189.484375 526.433594 Z M 1189.484375 98.792969 " fill-opacity="1" fill-rule="nonzero"/></g></g></g></g><g transform="matrix(1, 0, 0, 1, 250, 95)"><g clip-path="url(#646f43b07a)"><g fill="#ffffff" fill-opacity="1"><g transform="translate(1.434539, 164.434893)"><g><path d="M 40.71875 -0.203125 C 30.707031 -3.492188 22.820312 -7.640625 17.0625 -12.640625 C 11.3125 -17.648438 7.128906 -24.40625 4.515625 -32.90625 C 1.910156 -41.40625 0.40625 -52.375 0 -65.8125 C 0.40625 -79.238281 1.945312 -91.265625 4.625 -101.890625 C 7.300781 -112.515625 11.515625 -121.492188 17.265625 -128.828125 C 23.023438 -136.160156 30.84375 -141.472656 40.71875 -144.765625 C 45.789062 -146.410156 51.546875 -147.335938 57.984375 -147.546875 C 64.429688 -147.753906 70.804688 -147.132812 77.109375 -145.6875 C 83.421875 -144.25 88.90625 -141.957031 93.5625 -138.8125 C 100.414062 -134.144531 105.726562 -128.316406 109.5 -121.328125 C 113.269531 -114.335938 115.941406 -106.351562 117.515625 -97.375 C 119.097656 -88.394531 120.09375 -78.421875 120.5 -67.453125 C 120.5 -54.972656 118.578125 -43.421875 114.734375 -32.796875 C 110.898438 -22.171875 103.84375 -13.363281 93.5625 -6.375 C 88.90625 -3.21875 83.421875 -0.921875 77.109375 0.515625 C 70.804688 1.953125 64.429688 2.566406 57.984375 2.359375 C 51.546875 2.160156 45.789062 1.304688 40.71875 -0.203125 Z M 47.296875 -70.53125 C 47.429688 -62.03125 48.765625 -55.585938 51.296875 -51.203125 C 53.835938 -46.816406 56.785156 -44.519531 60.140625 -44.3125 C 63.503906 -44.101562 66.519531 -46.054688 69.1875 -50.171875 C 71.863281 -54.285156 73.34375 -60.523438 73.625 -68.890625 C 73.625 -79.722656 72.285156 -88.015625 69.609375 -93.765625 C 66.929688 -99.523438 63.84375 -102.578125 60.34375 -102.921875 C 56.851562 -103.265625 53.804688 -100.757812 51.203125 -95.40625 C 48.597656 -90.0625 47.296875 -81.769531 47.296875 -70.53125 Z M 47.296875 -70.53125 "/></g></g></g><g fill="#ffffff" fill-opacity="1"><g transform="translate(136.745457, 164.434893)"><g><path d="M 7.40625 0 C 5.625 0 3.976562 -0.753906 2.46875 -2.265625 C 1.09375 -3.628906 0.40625 -5.546875 0.40625 -8.015625 L 0 -136.75 C 0 -138.664062 0.753906 -140.515625 2.265625 -142.296875 C 3.773438 -143.941406 5.347656 -144.765625 6.984375 -144.765625 L 36.609375 -144.5625 L 86.578125 -144.765625 C 88.910156 -144.765625 90.828125 -144.082031 92.328125 -142.71875 C 93.835938 -141.207031 94.59375 -139.492188 94.59375 -137.578125 L 94.59375 -108.171875 C 94.59375 -106.523438 93.769531 -104.945312 92.125 -103.4375 C 90.613281 -102.207031 88.765625 -101.453125 86.578125 -101.171875 L 47.703125 -99.328125 L 48.328125 -79.171875 L 72.1875 -78.96875 C 73.96875 -78.96875 75.40625 -78.488281 76.5 -77.53125 C 77.59375 -76.425781 78.140625 -75.050781 78.140625 -73.40625 L 77.328125 -50.796875 C 77.328125 -49.554688 76.707031 -48.390625 75.46875 -47.296875 C 74.238281 -46.335938 72.867188 -45.722656 71.359375 -45.453125 L 49.359375 -44.21875 L 50.375 -8.4375 C 50.65625 -6.238281 49.972656 -4.316406 48.328125 -2.671875 C 46.953125 -1.023438 45.238281 -0.203125 43.1875 -0.203125 Z M 7.40625 0 "/></g></g></g><g fill="#ffffff" fill-opacity="1"><g transform="translate(246.145768, 164.434893)"><g><path d="M 7.40625 0 C 5.625 0 3.976562 -0.753906 2.46875 -2.265625 C 1.09375 -3.628906 0.40625 -5.546875 0.40625 -8.015625 L 0 -138.1875 C 0 -140.101562 0.753906 -141.957031 2.265625 -143.75 C 3.773438 -145.382812 5.347656 -146.203125 6.984375 -146.203125 L 86.578125 -146 C 88.910156 -146 90.828125 -145.316406 92.328125 -143.953125 C 93.835938 -142.441406 94.59375 -140.726562 94.59375 -138.8125 L 94.59375 -108.171875 C 94.59375 -106.523438 93.769531 -104.945312 92.125 -103.4375 C 90.613281 -102.207031 88.765625 -101.453125 86.578125 -101.171875 L 47.703125 -99.328125 L 48.125 -89.046875 L 70.328125 -88.84375 C 72.109375 -88.84375 73.6875 -88.359375 75.0625 -87.390625 C 76.425781 -86.429688 77.039062 -85.128906 76.90625 -83.484375 L 75.875 -61.484375 C 75.875 -60.117188 75.191406 -58.953125 73.828125 -57.984375 C 72.585938 -57.160156 71.078125 -56.613281 69.296875 -56.34375 L 48.9375 -55.3125 L 49.359375 -47.09375 L 86.578125 -45.453125 C 88.765625 -45.171875 90.613281 -44.414062 92.125 -43.1875 C 93.769531 -41.8125 94.59375 -40.234375 94.59375 -38.453125 L 94.59375 -7.8125 C 94.59375 -5.894531 93.835938 -4.179688 92.328125 -2.671875 C 90.828125 -1.296875 88.910156 -0.609375 86.578125 -0.609375 L 31.671875 0 C 31.390625 0 31.046875 0 30.640625 0 C 30.234375 0 29.890625 -0.0664062 29.609375 -0.203125 Z M 7.40625 0 "/></g></g></g><g fill="#ffffff" fill-opacity="1"><g transform="translate(355.54608, 164.434893)"><g><path d="M 109.40625 1.03125 C 105.425781 0.894531 100.660156 0.828125 95.109375 0.828125 C 89.554688 0.828125 82.941406 0.828125 75.265625 0.828125 C 73.066406 0.828125 71.28125 0.140625 69.90625 -1.234375 C 68.539062 -2.609375 67.242188 -4.390625 66.015625 -6.578125 L 53.46875 -34.546875 L 49.5625 -34.546875 L 50.375 -8.4375 C 50.65625 -6.101562 49.972656 -4.144531 48.328125 -2.5625 C 46.679688 -0.988281 44.96875 -0.203125 43.1875 -0.203125 L 7.40625 0 C 5.488281 0 3.84375 -0.785156 2.46875 -2.359375 C 1.09375 -3.941406 0.40625 -5.828125 0.40625 -8.015625 L 0 -136.546875 C 0 -138.460938 0.71875 -140.273438 2.15625 -141.984375 C 3.59375 -143.703125 5.203125 -144.5625 6.984375 -144.5625 L 36.1875 -144.5625 C 47.019531 -144.695312 56.957031 -144.59375 66 -144.25 C 75.050781 -143.914062 83.039062 -142.753906 89.96875 -140.765625 C 96.894531 -138.773438 102.648438 -135.378906 107.234375 -130.578125 C 111.828125 -125.785156 115.085938 -118.929688 117.015625 -110.015625 C 117.691406 -106.585938 118.269531 -102.441406 118.75 -97.578125 C 119.238281 -92.710938 119.34375 -87.640625 119.0625 -82.359375 C 118.789062 -77.078125 118.035156 -72.035156 116.796875 -67.234375 C 115.566406 -62.441406 113.648438 -58.46875 111.046875 -55.3125 C 107.617188 -51.0625 103.503906 -47.566406 98.703125 -44.828125 C 100.898438 -40.441406 103.367188 -35.367188 106.109375 -29.609375 C 108.847656 -23.847656 112.140625 -17.128906 115.984375 -9.453125 C 117.628906 -6.171875 117.9375 -3.566406 116.90625 -1.640625 C 115.875 0.273438 113.375 1.164062 109.40625 1.03125 Z M 47.703125 -97.46875 L 48.328125 -76.09375 L 58.609375 -76.09375 C 63.410156 -76.09375 67.113281 -77.253906 69.71875 -79.578125 C 72.320312 -81.910156 73.691406 -84.617188 73.828125 -87.703125 C 73.960938 -90.785156 72.59375 -93.492188 69.71875 -95.828125 C 68.34375 -96.921875 65.628906 -97.429688 61.578125 -97.359375 C 57.535156 -97.296875 52.910156 -97.332031 47.703125 -97.46875 Z M 47.703125 -97.46875 "/></g></g></g><g fill="#ffffff" fill-opacity="1"><g transform="translate(489.623138, 164.434893)"><g><path d="M 32.90625 0 C 30.707031 0 28.851562 -0.753906 27.34375 -2.265625 C 25.84375 -3.773438 25.09375 -5.691406 25.09375 -8.015625 L 26.109375 -95 L 8.21875 -95 C 6.03125 -94.863281 4.113281 -95.582031 2.46875 -97.15625 C 0.820312 -98.738281 0 -100.695312 0 -103.03125 L 0.40625 -137.78125 C 0.6875 -140.113281 1.546875 -142.03125 2.984375 -143.53125 C 4.421875 -145.039062 6.238281 -145.796875 8.4375 -145.796875 L 97.265625 -146.421875 C 99.597656 -146.421875 101.550781 -145.597656 103.125 -143.953125 C 104.707031 -142.304688 105.425781 -140.316406 105.28125 -137.984375 L 104.265625 -102.8125 C 103.847656 -98.15625 101.3125 -95.625 96.65625 -95.21875 L 80 -95.21875 L 80.40625 -8.4375 C 80.675781 -6.101562 79.921875 -4.179688 78.140625 -2.671875 C 76.359375 -1.023438 74.441406 -0.203125 72.390625 -0.203125 Z M 32.90625 0 "/></g></g></g><g fill="#ffffff" fill-opacity="1"><g transform="translate(609.716734, 164.434893)"><g><path d="M 7.203125 0.609375 C 4.597656 0.609375 2.609375 -0.484375 1.234375 -2.671875 C 0.273438 -4.316406 -0.101562 -5.617188 0.09375 -6.578125 C 0.300781 -7.535156 0.613281 -9.25 1.03125 -11.71875 L 31.46875 -138.390625 C 32.007812 -140.453125 32.863281 -142.304688 34.03125 -143.953125 C 35.195312 -145.597656 36.738281 -146.421875 38.65625 -146.421875 L 90.28125 -146.421875 C 92.195312 -146.421875 93.738281 -145.597656 94.90625 -143.953125 C 96.070312 -142.304688 96.925781 -140.453125 97.46875 -138.390625 L 127.90625 -11.71875 C 128.320312 -9.25 128.664062 -7.535156 128.9375 -6.578125 C 129.207031 -5.617188 128.796875 -4.316406 127.703125 -2.671875 C 126.328125 -0.484375 124.335938 0.609375 121.734375 0.609375 C 111.585938 0.609375 103.703125 0.644531 98.078125 0.71875 C 92.460938 0.789062 88.421875 0.585938 85.953125 0.109375 C 83.484375 -0.367188 81.835938 -1.46875 81.015625 -3.1875 C 80.191406 -4.90625 79.441406 -7.613281 78.765625 -11.3125 L 77.53125 -17.6875 L 51.40625 -17.6875 L 50.171875 -11.3125 C 49.484375 -7.613281 48.726562 -4.90625 47.90625 -3.1875 C 47.09375 -1.46875 45.453125 -0.367188 42.984375 0.109375 C 40.515625 0.585938 36.46875 0.789062 30.84375 0.71875 C 25.226562 0.644531 17.347656 0.609375 7.203125 0.609375 Z M 58.40625 -57.375 L 70.53125 -57.375 L 64.578125 -91.515625 Z M 58.40625 -57.375 "/></g></g></g></g></g><g transform="matrix(1, 0, 0, 1, 24, 1054)"><g clip-path="url(#f13e5bffda)"><g fill="#000000" fill-opacity="1"><g transform="translate(0.950481, 128.626105)"><g><path d="M 81.890625 4.875 C 80.316406 4.875 79.097656 4.742188 78.234375 4.484375 C 77.421875 4.234375 76.988281 4.109375 76.9375 4.109375 C 75.46875 3.296875 73.90625 1.738281 72.25 -0.5625 C 70.601562 -2.875 68.894531 -5.578125 67.125 -8.671875 C 65.394531 -11.710938 63.679688 -14.945312 61.984375 -18.375 C 60.285156 -21.800781 58.726562 -25.007812 57.3125 -28 C 56.800781 -27.957031 56.289062 -27.9375 55.78125 -27.9375 C 55.269531 -27.9375 54.738281 -27.9375 54.1875 -27.9375 L 50.90625 -27.9375 C 48.425781 -27.9375 45.765625 -28.007812 42.921875 -28.15625 C 43.171875 -22.164062 43.4375 -16.785156 43.71875 -12.015625 C 44 -7.253906 44.316406 -3.578125 44.671875 -0.984375 L 12.09375 1.140625 L 11.953125 -32.109375 L 6.171875 -32.71875 L 6.46875 -46.734375 L 11.953125 -46.265625 L 11.796875 -104.953125 L 11.875 -104.953125 L 11.71875 -105.09375 C 12.28125 -105.144531 13.015625 -105.234375 13.921875 -105.359375 C 14.835938 -105.492188 15.929688 -105.660156 17.203125 -105.859375 C 19.640625 -106.265625 22.679688 -106.644531 26.328125 -107 C 29.984375 -107.351562 34.171875 -107.679688 38.890625 -107.984375 C 43.609375 -108.296875 48.78125 -108.453125 54.40625 -108.453125 C 59.582031 -108.453125 64.53125 -108.195312 69.25 -107.6875 C 73.96875 -107.175781 78.382812 -106.335938 82.5 -105.171875 C 86.550781 -104.003906 90.25 -102.414062 93.59375 -100.40625 C 96.945312 -98.40625 99.84375 -95.9375 102.28125 -93 C 104.71875 -90.050781 106.632812 -86.546875 108.03125 -82.484375 C 109.425781 -78.429688 110.195312 -73.742188 110.34375 -68.421875 C 110.65625 -59.234375 108.90625 -51.734375 105.09375 -45.921875 C 101.289062 -40.117188 95.226562 -35.742188 86.90625 -32.796875 C 89.34375 -28.992188 91.929688 -25.210938 94.671875 -21.453125 C 97.410156 -17.703125 100.351562 -14.101562 103.5 -10.65625 C 105.9375 -7.050781 106.617188 -4.171875 105.546875 -2.015625 C 104.484375 0.140625 101.898438 1.722656 97.796875 2.734375 C 94.035156 3.648438 90.847656 4.25 88.234375 4.53125 C 85.628906 4.8125 83.515625 4.925781 81.890625 4.875 Z M 46.1875 -45.359375 L 50.296875 -45.359375 C 54.109375 -45.359375 57.703125 -45.773438 61.078125 -46.609375 C 64.453125 -47.453125 67.40625 -48.734375 69.9375 -50.453125 C 72.476562 -52.128906 74.492188 -54.296875 75.984375 -56.953125 C 77.484375 -59.617188 78.257812 -62.78125 78.3125 -66.4375 C 78.414062 -71.351562 77.601562 -75.234375 75.875 -78.078125 C 74.144531 -80.921875 71.8125 -83.050781 68.875 -84.46875 C 65.925781 -85.945312 62.523438 -86.863281 58.671875 -87.21875 C 54.816406 -87.570312 50.8125 -87.75 46.65625 -87.75 L 44.0625 -87.75 C 43.65625 -87.695312 43.234375 -87.671875 42.796875 -87.671875 C 42.367188 -87.671875 41.953125 -87.671875 41.546875 -87.671875 C 41.597656 -85.035156 41.648438 -82.09375 41.703125 -78.84375 C 41.753906 -75.59375 41.804688 -72.164062 41.859375 -68.5625 L 42.078125 -57.234375 C 42.128906 -55.304688 42.179688 -53.351562 42.234375 -51.375 C 42.285156 -49.394531 42.335938 -47.441406 42.390625 -45.515625 C 42.953125 -45.460938 43.5625 -45.421875 44.21875 -45.390625 C 44.875 -45.367188 45.53125 -45.359375 46.1875 -45.359375 Z M 46.1875 -45.359375 "/></g></g></g><g clip-path="url(#2d7822efd4)"><g fill="#000000" fill-opacity="1"><g transform="translate(115.797715, 128.626105)"><g><path d="M 50.609375 22 C 48.273438 22 46.347656 21.613281 44.828125 20.84375 C 43.304688 20.082031 42.113281 19.070312 41.25 17.8125 C 40.332031 16.59375 39.695312 15.207031 39.34375 13.65625 C 38.988281 12.113281 38.8125 10.53125 38.8125 8.90625 L 38.8125 1.515625 C 33.132812 0.859375 28.113281 -0.300781 23.75 -1.96875 C 19.382812 -3.644531 15.679688 -5.601562 12.640625 -7.84375 C 9.585938 -10.070312 7.222656 -12.453125 5.546875 -14.984375 C 3.878906 -17.523438 2.894531 -20.015625 2.59375 -22.453125 C 2.488281 -24.222656 2.585938 -26.019531 2.890625 -27.84375 C 3.191406 -29.675781 3.828125 -31.300781 4.796875 -32.71875 C 5.804688 -34.144531 7.25 -35.238281 9.125 -36 C 11.007812 -36.757812 13.550781 -36.960938 16.75 -36.609375 C 17.8125 -36.453125 19.050781 -36.046875 20.46875 -35.390625 C 21.894531 -34.734375 23.46875 -33.945312 25.1875 -33.03125 C 26.050781 -32.570312 26.925781 -32.097656 27.8125 -31.609375 C 28.695312 -31.128906 29.625 -30.640625 30.59375 -30.140625 C 32.519531 -29.066406 34.519531 -28.097656 36.59375 -27.234375 C 38.675781 -26.378906 40.835938 -25.671875 43.078125 -25.109375 C 45.304688 -24.503906 47.5625 -24.203125 49.84375 -24.203125 C 54.15625 -24.203125 57.707031 -25.085938 60.5 -26.859375 C 61.820312 -27.722656 62.875 -28.75 63.65625 -29.9375 C 64.445312 -31.132812 64.84375 -32.46875 64.84375 -33.9375 C 64.84375 -35.71875 64.015625 -37.226562 62.359375 -38.46875 C 60.710938 -39.707031 58.546875 -40.8125 55.859375 -41.78125 C 53.171875 -42.75 50.078125 -43.660156 46.578125 -44.515625 C 43.128906 -45.378906 39.601562 -46.367188 36 -47.484375 C 32.394531 -48.597656 28.84375 -49.921875 25.34375 -51.453125 C 21.84375 -52.972656 18.722656 -54.847656 15.984375 -57.078125 C 13.242188 -59.304688 11.035156 -62.019531 9.359375 -65.21875 C 7.679688 -68.363281 6.84375 -72.144531 6.84375 -76.5625 C 6.84375 -85.03125 9.632812 -92.207031 15.21875 -98.09375 C 17.957031 -100.9375 21.34375 -103.347656 25.375 -105.328125 C 29.414062 -107.304688 34.070312 -108.703125 39.34375 -109.515625 L 39.265625 -126.40625 L 56.703125 -127.921875 C 56.703125 -127.066406 56.703125 -126.179688 56.703125 -125.265625 C 56.703125 -124.347656 56.722656 -123.410156 56.765625 -122.453125 C 56.816406 -121.640625 56.84375 -120.75 56.84375 -119.78125 C 56.84375 -118.820312 56.867188 -117.8125 56.921875 -116.75 C 56.921875 -115.675781 56.921875 -114.59375 56.921875 -113.5 C 56.921875 -112.414062 56.945312 -111.289062 57 -110.125 C 61.0625 -109.863281 64.890625 -109.378906 68.484375 -108.671875 C 72.085938 -107.960938 75.363281 -107.101562 78.3125 -106.09375 C 84.25 -103.957031 88.789062 -101.316406 91.9375 -98.171875 L 82.578125 -75.5 C 81.609375 -76.257812 80.320312 -77.019531 78.71875 -77.78125 C 77.125 -78.539062 75.363281 -79.300781 73.4375 -80.0625 C 71.457031 -80.820312 69.375 -81.53125 67.1875 -82.1875 C 65.007812 -82.851562 62.882812 -83.4375 60.8125 -83.9375 C 58.675781 -84.445312 56.671875 -84.84375 54.796875 -85.125 C 52.921875 -85.40625 51.269531 -85.546875 49.84375 -85.546875 C 46.144531 -85.546875 42.875 -84.859375 40.03125 -83.484375 C 38.707031 -82.828125 37.640625 -82.03125 36.828125 -81.09375 C 36.015625 -80.15625 35.609375 -79.078125 35.609375 -77.859375 C 35.609375 -76.535156 36.34375 -75.414062 37.8125 -74.5 C 39.289062 -73.59375 41.25 -72.734375 43.6875 -71.921875 C 44.90625 -71.515625 46.222656 -71.117188 47.640625 -70.734375 C 49.054688 -70.359375 50.550781 -69.96875 52.125 -69.5625 C 55.320312 -68.800781 58.835938 -67.859375 62.671875 -66.734375 C 66.503906 -65.617188 70.5 -64.203125 74.65625 -62.484375 C 78.863281 -60.753906 82.628906 -58.53125 85.953125 -55.8125 C 89.273438 -53.101562 92.003906 -49.796875 94.140625 -45.890625 C 96.222656 -41.984375 97.265625 -37.289062 97.265625 -31.8125 C 97.265625 -28.050781 96.726562 -24.675781 95.65625 -21.6875 C 94.59375 -18.695312 93.148438 -16.007812 91.328125 -13.625 C 89.492188 -11.289062 87.320312 -9.222656 84.8125 -7.421875 C 82.300781 -5.617188 79.625 -4.109375 76.78125 -2.890625 C 73.894531 -1.617188 70.878906 -0.617188 67.734375 0.109375 C 64.585938 0.847656 61.46875 1.394531 58.375 1.75 C 58.46875 4.84375 58.59375 7.566406 58.75 9.921875 C 58.90625 12.285156 59.054688 14.175781 59.203125 15.59375 C 58.953125 16.3125 58.582031 17.050781 58.09375 17.8125 C 57.613281 18.570312 57.019531 19.253906 56.3125 19.859375 C 55.601562 20.472656 54.78125 20.984375 53.84375 21.390625 C 52.90625 21.796875 51.828125 22 50.609375 22 Z M 50.609375 22 "/></g></g></g></g></g></g></g></g></g></svg>